<?xml version="1.0" encoding="utf-8"?>
<!-- Generator: Adobe Illustrator 24.3.0, SVG Export Plug-In . SVG Version: 6.00 Build 0)  -->
<svg version="1.1" id="GONG_LOGO" xmlns="http://www.w3.org/2000/svg" xmlns:xlink="http://www.w3.org/1999/xlink" x="0px" y="0px"
	 viewBox="0 0 16 16" style="enable-background:new 0 0 16 16;" xml:space="preserve">
<style type="text/css">
	.st0{fill:#AB2E37;}
	.st1{fill:#FFFFFF;}
</style>
<g>
	<circle class="st0" cx="8" cy="8" r="8"/>
	<path class="st1" d="M7.2,6.8c0,0.1,0,0.2,0,0.3c0,0.1,0,1.6-0.7,2.5c-0.4,0.6-0.9,1-1.5,1.2C4.4,11,3.8,11,3.2,10.9
		c-0.6-0.1-1-0.5-1.3-1c-0.4-1-0.5-2,0-2.9c0.3-0.7,0.9-1.3,1.6-1.6c0.5-0.2,0.9-0.2,1.4-0.1c0.4,0.1,0.8,0.4,0.9,0.9
		C6,6.7,6,7.3,5.9,7.9c0,0.3-0.1,0.7-0.2,1C5.5,9.2,5.3,9.5,5,9.8c-0.4,0.3-0.9,0.3-1.3,0.2C3.5,9.9,3.4,9.7,3.4,9.5
		c0-0.2,0-0.5,0.2-0.7c0,0,0,0.2,0,0.3c0,0.2,0.1,0.4,0.2,0.5C4,9.8,4.5,9.8,4.7,9.5C4.9,9.3,5,9,5,8.8C5,8.4,5,8,4.6,7.7
		c-0.3-0.3-0.7-0.3-1.1,0C3.3,7.9,3.2,8.1,3.1,8.4C2.9,8.9,2.8,9.4,3,9.9c0.1,0.3,0.3,0.6,0.7,0.6c0.6,0.1,1.1,0.1,1.7-0.2
		c0.5-0.2,0.8-0.6,0.9-1.1C6.4,8.8,6.3,8.4,6.3,8c0-0.3,0-0.6,0-1c0-0.3,0.1-0.7,0.2-1c0.1-0.2,0.2-0.3,0.4-0.2
		c0.8,0.1,1.4,0.5,1.6,1.4c0.1,0.3,0,0.5,0,0.8c0,0.2-0.1,0.5-0.1,0.7c0,0.1,0,0.1,0,0.2c0,0.2,0.1,0.3,0.4,0.3c0.1,0,0-0.2,0-0.3
		c0-0.4,0-0.6,0.1-1.2C9,6.9,9.7,6.4,10.2,6.4c0,0-0.8,0.6-0.8,1.4c0,0.2,0,0.3,0,0.5c0.1,0.2,0.1,0.5,0.1,0.7c0,0.1,0,0.2,0,0.2
		C9.4,9.5,9.4,9.5,9.1,9.5c-0.3,0-0.5,0-0.8-0.1C8.1,9.3,7.9,9.1,7.8,8.9C7.6,8.6,7.6,8.3,7.6,8c0-0.3,0-0.7,0.1-1
		c0-0.1,0-0.3-0.1-0.3C7.4,6.6,7.3,6.7,7.2,6.8z"/>
	<path class="st1" d="M13.3,5.2c0.2,0-2.1,0.2-2.4,2.4c0,0-0.2,1.3,0.6,1.3c0.8,0,2-0.9,1.9-1.6c-0.1-0.7-1.7,0.3-1.9,0.5
		c0,0,0.5-1.3,1.8-1.4s0.9,1.6,0.9,1.6s-0.8,2.3-2.7,2.1c0,0-1.8,0-1.7-2S11.9,4.8,13.3,5.2z"/>
</g>
</svg>
