<?xml version="1.0" encoding="utf-8"?>
<!-- Generator: Adobe Illustrator 23.0.1, SVG Export Plug-In . SVG Version: 6.00 Build 0)  -->
<svg version="1.1" id="GONG_LOGO" xmlns="http://www.w3.org/2000/svg" xmlns:xlink="http://www.w3.org/1999/xlink" x="0px" y="0px"
	 viewBox="0 0 82 82" style="enable-background:new 0 0 82 82;" xml:space="preserve">
<style type="text/css">
	.st0{fill:#AB2E37;}
	.st1{fill:#FFFFFF;}
</style>
<g>
	<circle class="st0" cx="41.1" cy="41" r="40"/>
	<path class="st1" d="M37.07,35.05c-0.17,0.39,0.16,0.88,0.22,1.33c0.06,0.46-0.21,7.88-3.3,12.34c-1.81,2.92-4.29,4.97-7.49,6.22
		c-3.17,1.23-6.4,1.2-9.65,0.57c-3.03-0.59-5.22-2.4-6.4-5.24c-2.02-4.85-2.27-9.77,0.04-14.6c1.72-3.59,4.26-6.46,8.08-7.93
		c2.25-0.87,4.59-1.06,6.92-0.35c2.23,0.68,3.76,2.16,4.6,4.35c1.06,2.78,0.84,5.65,0.64,8.51c-0.12,1.67-0.48,3.31-1.19,4.85
		c-0.86,1.86-1.96,3.54-3.48,4.96c-1.79,1.67-4.43,1.74-6.36,0.83c-0.91-0.43-1.49-1.18-1.57-2.24c-0.1-1.24,0.12-2.41,0.79-3.72
		c0,0,0.11,1.08,0.16,1.49c0.12,0.92,0.3,1.8,1.05,2.47c1.04,0.93,3.54,0.99,4.58-0.6c0.67-1.03,1.15-2.14,1.25-3.33
		c0.17-2.07-0.08-4.09-1.73-5.62c-1.73-1.61-3.6-1.69-5.32-0.12c-1.21,1.11-1.96,2.51-2.52,4.01c-0.89,2.4-1.3,4.84-0.48,7.37
		c0.56,1.73,1.66,2.83,3.46,3.05c2.84,0.36,5.65,0.26,8.3-1.02c2.42-1.17,3.85-3.14,4.6-5.67c0.58-1.95,0.51-3.94,0.5-5.93
		c-0.01-1.6-0.07-3.2,0.03-4.79c0.1-1.66,0.29-3.33,0.92-4.91c0.39-0.98,0.79-1.3,1.8-1.19c4,0.44,7.22,2.57,8.07,6.78
		c0.26,1.3,0.24,2.62,0.03,3.93c-0.19,1.22-0.5,2.42-0.74,3.63c-0.05,0.27-0.09,0.55-0.1,0.83c-0.05,1.25,0.68,1.71,1.8,1.39
		c0.4-0.11,0.17-0.92,0.17-1.39c-0.02-1.95-0.17-3.25,0.43-5.82c0.86-3.8,4.48-6.67,6.68-6.56c0,0-3.75,2.98-4.13,6.77
		c-0.01,0.77,0.05,1.42,0.21,2.48c0.26,1.17,0.6,2.31,0.7,3.51c0.03,0.4,0.04,0.78-0.03,1.18c-0.28,1.49-0.64,1.8-2.13,1.85
		c-1.37,0.05-2.7-0.06-3.96-0.68c-1.16-0.57-2.02-1.39-2.56-2.56c-0.63-1.36-0.99-2.76-0.98-4.27c0.01-1.72-0.01-3.42,0.41-5.11
		c0.17-0.68-0.19-1.41-0.72-1.62C38.01,34.21,37.37,34.52,37.07,35.05z"/>
	<path class="st1" d="M67.64,26.93c0.8,0.21-10.28,0.83-12.11,11.83c0,0-0.86,6.28,3.15,6.47c3.75,0.18,10.17-4.42,9.51-8.07
		c-0.66-3.65-8.62,1.27-9.73,2.27c0,0,2.32-6.52,9.07-6.97s4.31,8.15,4.31,8.15S67.69,51.98,58.57,51.2c0,0-8.85-0.22-8.29-9.9
		S60.73,25.16,67.64,26.93z"/>
</g>
</svg>
